<svg xmlns="http://www.w3.org/2000/svg" viewBox="0 0 512 512" width="512" height="512">
  <rect width="512" height="512" rx="100" fill="#3e6690"/>
  <rect x="70" y="70" width="372" height="372" rx="30" fill="#fbf3e1" stroke="#2c2417" stroke-width="12"/>
  
  <!-- Notebook lines -->
  <line x1="120" y1="160" x2="390" y2="160" stroke="#d9c79c" stroke-width="8" stroke-linecap="round"/>
  <line x1="120" y1="230" x2="390" y2="230" stroke="#d9c79c" stroke-width="8" stroke-linecap="round"/>
  <line x1="120" y1="300" x2="390" y2="300" stroke="#d9c79c" stroke-width="8" stroke-linecap="round"/>
  <line x1="120" y1="370" x2="390" y2="370" stroke="#d9c79c" stroke-width="8" stroke-linecap="round"/>
  
  <!-- Checkmarks -->
  <path d="M130 155 L145 170 L175 140" fill="none" stroke="#3e8c56" stroke-width="8" stroke-linecap="round" stroke-linejoin="round"/>
  <path d="M130 225 L145 240 L175 210" fill="none" stroke="#3e8c56" stroke-width="8" stroke-linecap="round" stroke-linejoin="round"/>
  <path d="M130 295 L145 310 L175 280" fill="none" stroke="#3e8c56" stroke-width="8" stroke-linecap="round" stroke-linejoin="round"/>
  
  <!-- Bookmark Ribbon -->
  <polygon points="350,70 350,190 380,165 410,190 410,70" fill="#b14a42"/>
  
  <!-- Red heart badge -->
  <path d="M256 360 C256 360 216 330 200 300 C184 270 204 240 236 240 C248 240 256 250 256 250 C256 250 264 240 276 240 C308 240 328 270 312 300 C296 330 256 360 256 360 Z" fill="#b14a42"/>
</svg>
